<svg width="20" height="20" viewBox="0 0 20 20" fill="none" xmlns="http://www.w3.org/2000/svg">
<path d="M15 12.4997C14.5397 12.4997 14.1667 12.1266 14.1667 11.6664C14.1667 11.2061 14.5397 10.833 15 10.833C15.4602 10.833 15.8333 11.2061 15.8333 11.6664C15.8333 12.1266 15.4602 12.4997 15 12.4997Z" fill="#383B3E"/>
<path fill-rule="evenodd" clip-rule="evenodd" d="M16.6667 6.66636H17.9167C18.1468 6.66636 18.3333 6.85291 18.3333 7.08303V16.2497C18.3333 16.4798 18.1468 16.6664 17.9167 16.6664H3.74999C3.19309 16.6664 2.65937 16.4435 2.26794 16.0474C1.87651 15.6512 1.65997 15.1149 1.66665 14.558V5.39136C1.67582 4.24862 2.60723 3.3284 3.74999 3.33303H16.25C16.4801 3.33303 16.6667 3.51957 16.6667 3.74969V6.66636ZM3.74999 4.16636C3.38316 4.16391 3.03455 4.32599 2.79999 4.60803C2.70136 4.72351 2.62506 4.85632 2.57499 4.99969H15.8333V4.16636H3.74999ZM15.8333 5.83303V6.66636H3.84165C3.29326 6.67209 2.79728 6.34144 2.59165 5.83303H15.8333ZM15 13.333H17.5V9.99969H15C14.0795 9.99969 13.3333 10.7459 13.3333 11.6664C13.3333 12.5868 14.0795 13.333 15 13.333ZM17.5 9.16636H15C13.6193 9.16636 12.5 10.2856 12.5 11.6664C12.5 13.0471 13.6193 14.1664 15 14.1664H17.5V15.833H3.74999C3.05963 15.833 2.49999 15.2734 2.49999 14.583V7.08303C2.8918 7.3605 3.36159 7.5064 3.84165 7.49969H17.5V9.16636Z" fill="#383B3E"/>
</svg>
