<svg width="20" height="20" viewBox="0 0 20 20" fill="none" xmlns="http://www.w3.org/2000/svg">
<path fill-rule="evenodd" clip-rule="evenodd" d="M14.1667 9.16667H17.0833C17.3135 9.16667 17.5 9.35321 17.5 9.58333V15.4167C17.5022 15.9699 17.2834 16.5011 16.8923 16.8923C16.5011 17.2834 15.9699 17.5022 15.4167 17.5H4.58333C3.43274 17.5 2.5 16.5673 2.5 15.4167V2.91667C2.5 2.68655 2.68655 2.5 2.91667 2.5H13.75C13.9801 2.5 14.1667 2.68655 14.1667 2.91667V9.16667ZM3.33333 15.4167C3.33333 16.107 3.89298 16.6667 4.58333 16.6667H13.775C13.4886 16.2779 13.3339 15.8078 13.3333 15.325V3.33333H3.33333V15.4167ZM16.6667 15.4167C16.6691 15.7835 16.507 16.1321 16.225 16.3667C15.9965 16.5708 15.6978 16.6783 15.3917 16.6667H15.2C14.5774 16.5266 14.1431 15.9627 14.1667 15.325V10H16.6667V15.4167ZM7.08333 7.5H4.58333C4.35321 7.5 4.16667 7.68655 4.16667 7.91667V12.9167C4.16667 13.1468 4.35321 13.3333 4.58333 13.3333H7.08333C7.31345 13.3333 7.5 13.1468 7.5 12.9167V7.91667C7.5 7.68655 7.31345 7.5 7.08333 7.5ZM6.66667 12.5H5V8.33333H6.66667V12.5ZM12.0833 7.5H8.75C8.51988 7.5 8.33333 7.68655 8.33333 7.91667C8.33333 8.14678 8.51988 8.33333 8.75 8.33333H12.0833C12.3135 8.33333 12.5 8.14678 12.5 7.91667C12.5 7.68655 12.3135 7.5 12.0833 7.5ZM8.75 10H12.0833C12.3135 10 12.5 10.1865 12.5 10.4167C12.5 10.6468 12.3135 10.8333 12.0833 10.8333H8.75C8.51988 10.8333 8.33333 10.6468 8.33333 10.4167C8.33333 10.1865 8.51988 10 8.75 10ZM12.0833 12.5H8.75C8.51988 12.5 8.33333 12.6865 8.33333 12.9167C8.33333 13.1468 8.51988 13.3333 8.75 13.3333H12.0833C12.3135 13.3333 12.5 13.1468 12.5 12.9167C12.5 12.6865 12.3135 12.5 12.0833 12.5ZM4.58333 5H12.0833C12.3135 5 12.5 5.18655 12.5 5.41667C12.5 5.64679 12.3135 5.83333 12.0833 5.83333H4.58333C4.35321 5.83333 4.16667 5.64679 4.16667 5.41667C4.16667 5.18655 4.35321 5 4.58333 5Z" fill="#383B3E"/>
</svg>
