<svg width="20" height="20" viewBox="0 0 20 20" fill="none" xmlns="http://www.w3.org/2000/svg">
<path d="M18.2057 9.27949C18.3724 9.43783 18.3807 9.70449 18.2224 9.87116C18.139 9.95449 18.0307 9.99616 17.914 9.99616C17.814 9.99616 17.714 9.96283 17.6307 9.88783L16.664 8.97116V16.2462C16.664 17.3962 15.7307 18.3295 14.5807 18.3295H12.4974V12.9128C12.4974 12.6878 12.314 12.4962 12.089 12.4962H7.91405C7.68071 12.4962 7.49738 12.6878 7.49738 12.9128V18.3295H5.41405C4.26405 18.3295 3.33071 17.3962 3.33071 16.2462V8.97116L2.37238 9.88783C2.20571 10.0462 1.93905 10.0378 1.78071 9.87116C1.62238 9.70449 1.63072 9.43783 1.79738 9.27949L3.45571 7.71283L9.71405 1.77949C9.87238 1.62949 10.1224 1.62949 10.289 1.77949L16.5474 7.71283L18.2057 9.27949Z" fill="#C41F3E"/>
</svg>
